<svg width="105" height="31" viewBox="0 0 105 31" fill="none" xmlns="http://www.w3.org/2000/svg">
<path fill-rule="evenodd" clip-rule="evenodd" d="M16 23.25L24 31L32 23.25L24 15.5L32 7.74997L24 0L16 7.75004L7.99996 0L0 7.74997L8.00004 15.5L0 23.25L7.99996 31L16 23.25ZM52.5 23.25L60.25 31L68 23.25L60.25 15.5L68 7.74997L60.25 0L52.5 7.75004L44.75 0L37 7.74997L44.75 15.5L37 23.25L44.75 31L52.5 23.25ZM97.25 31L89.5 23.25L81.75 31L74 23.25L81.75 15.5L74 7.74997L81.75 0L89.5 7.75004L97.25 0L105 7.74997L97.25 15.5L105 23.25L97.25 31Z" fill="black"/>
</svg>
