<svg width="24" height="24" fill="none" xmlns="http://www.w3.org/2000/svg">
  <path fill-rule="evenodd" clip-rule="evenodd"
        d="M10.571 9.714a2.857 2.857 0 100-5.714 2.857 2.857 0 000 5.714zm0 1a3.857 3.857 0 100-7.714 3.857 3.857 0 000 7.714zm-5.323 4.1C4.425 15.787 4 16.962 4 17.786v2.071h9.786a.5.5 0 110 1H3v-3.071c0-1.105.54-2.501 1.484-3.618.955-1.128 2.371-2.025 4.159-2.025H12.5c1.208 0 2.261.335 3.122.898a.5.5 0 11-.548.837c-.695-.455-1.557-.735-2.574-.735H8.643c-1.427 0-2.582.71-3.395 1.671zM19.07 16a.5.5 0 10-1 0v2.071H16a.5.5 0 000 1h2.071v2.072a.5.5 0 001 0V19.07h2.072a.5.5 0 100-1H19.07V16z"
        fill="#000"/>
</svg>
