<svg width="24" height="24" fill="none" xmlns="http://www.w3.org/2000/svg"><path fill-rule="evenodd" clip-rule="evenodd" d="M11 5.5a3.5 3.5 0 11-7 0 3.5 3.5 0 017 0zm1 0a4.5 4.5 0 11-9 0 4.5 4.5 0 019 0zm3.644 8.025a2.131 2.131 0 111.339 3.79.5.5 0 100 1 3.131 3.131 0 10-1.968-5.568.5.5 0 00.629.778zM1 17.5V21h13v-3.5c0-2.897-2.015-5-4.217-5H5.217C3.015 12.5 1 14.603 1 17.5zM15 21v-3.5c0-3.314-2.336-6-5.217-6H5.217C2.336 11.5 0 14.186 0 17.5V22h15v-1zm1.547-11.702a2.465 2.465 0 01-2.49 1.577c-.615-.44-1.3-.73-2.026-.833a1.44 1.44 0 011.618-.288 1.464 1.464 0 001.964-.813c.48-1.255 2.255-1.255 2.735 0a1.464 1.464 0 001.964.813c1.226-.547 2.48.707 1.934 1.934-.342.767.03 1.663.813 1.964 1.254.48 1.254 2.254 0 2.734a1.464 1.464 0 00-.813 1.964c.547 1.227-.708 2.481-1.934 1.934a1.464 1.464 0 00-1.964.814 1.44 1.44 0 01-1.348.94v-1a.456.456 0 00.414-.298 2.464 2.464 0 013.305-1.37.464.464 0 00.613-.612c-.575-1.29.05-2.8 1.37-3.305a.464.464 0 000-.867 2.464 2.464 0 01-1.37-3.306.464.464 0 00-.613-.613c-1.29.576-2.8-.05-3.305-1.369a.464.464 0 00-.867 0z" fill="#000"/></svg>