<svg width="24" height="24" fill="none" xmlns="http://www.w3.org/2000/svg"><path d="M18.286 12.75c.034 3.632 3.18 4.841 3.214 4.857-.027.085-.503 1.722-1.657 3.413-.998 1.462-2.034 2.919-3.666 2.949-1.604.03-2.12-.953-3.953-.953-1.833 0-2.405.923-3.923.982-1.576.06-2.775-1.58-3.782-3.037C2.463 17.98.891 12.54 3.001 8.869 4.05 7.045 5.923 5.89 7.957 5.86c1.547-.03 3.007 1.043 3.952 1.043.945 0 2.72-1.29 4.585-1.1.78.032 2.973.315 4.38 2.38-.113.07-2.615 1.53-2.588 4.566Zm-3.014-8.918c.836-1.015 1.4-2.427 1.246-3.832-1.206.049-2.663.805-3.528 1.819-.775.898-1.454 2.335-1.27 3.712 1.343.105 2.716-.684 3.552-1.699" fill="#A6C3DD"/></svg>