<svg width="24" height="24" fill="none" xmlns="http://www.w3.org/2000/svg"><path d="M18.162 8H5.838C5.375 8 5 8.355 5 8.794v10.412c0 .439.375.794.838.794h12.324c.463 0 .838-.355.838-.794V8.794c0-.439-.375-.794-.838-.794ZM22 15.614c0 .368-.105.72-.293.98-.187.26-.442.406-.707.406-.265 0-.52-.146-.707-.406a1.694 1.694 0 0 1-.293-.98V9.386c0-.368.105-.72.293-.98.187-.26.442-.406.707-.406.265 0 .52.146.707.406.188.26.293.612.293.98v6.228ZM4 15.614c0 .368-.105.72-.293.98-.187.26-.442.406-.707.406-.265 0-.52-.146-.707-.406a1.694 1.694 0 0 1-.293-.98V9.386c0-.368.105-.72.293-.98C2.48 8.146 2.735 8 3 8c.265 0 .52.146.707.406.188.26.293.612.293.98v6.228Z" fill="#A6C3DD"/><path fill-rule="evenodd" clip-rule="evenodd" d="M5 7s.156-6.021 7.001-6C18.781 1.021 19 7 19 7H5Zm4-2a1 1 0 1 0 0-2 1 1 0 0 0 0 2Zm7-1a1 1 0 1 1-2 0 1 1 0 0 1 2 0Z" fill="#A6C3DD"/><path d="M16 22.614c0 .368-.105.72-.293.98-.187.26-.442.406-.707.406-.265 0-.52-.146-.707-.406a1.694 1.694 0 0 1-.293-.98v-6.228c0-.368.105-.72.293-.98.187-.26.442-.406.707-.406.131 0 .261.035.383.105.121.07.232.172.325.3.092.13.166.282.216.45.05.168.076.349.076.53v6.23ZM10 22.614c0 .367-.105.72-.293.98-.187.26-.442.406-.707.406-.265 0-.52-.146-.707-.406a1.695 1.695 0 0 1-.293-.98v-6.232c0-.366.106-.717.292-.977.187-.259.44-.404.705-.405.265 0 .52.146.707.406.188.26.293.613.293.98L10 22.614Z" fill="#A6C3DD"/></svg>