<svg width="24" height="24" fill="none" xmlns="http://www.w3.org/2000/svg"><path fill-rule="evenodd" clip-rule="evenodd" d="M21.999 2c-3.67.519-7.334 1.066-10.995 1.642C11 6.427 11 9.212 11.004 12c1.888-.006 3.776-.024 5.663-.043 1.779-.017 3.557-.034 5.334-.04.002-3.305 0-6.61-.002-9.917ZM9.997 4c-2.67.345-5.338.71-7.996 1.134V12c1.445.004 2.89-.006 4.334-.016 1.222-.008 2.444-.016 3.666-.016 0-2.655-.002-5.31-.005-7.967Zm-7.995 9.001a401.36 401.36 0 0 1 4.178.015c1.273.009 2.545.018 3.817.015 0 .886 0 1.771.002 2.656C10 17.459 10 19.23 9.997 21c-2.032-.31-4.067-.591-6.102-.872h-.001L2 19.866 2.002 13ZM21.996 13H11l.016 8.383c3.662.517 7.326 1.047 10.98 1.617.005-3.334.005-6.668 0-10Z" fill="#A6C3DD"/></svg>