<svg width="136" height="24" fill="none" xmlns="http://www.w3.org/2000/svg"><path fill-rule="evenodd" clip-rule="evenodd" d="M21.999 2c-3.67.519-7.334 1.066-10.995 1.642C11 6.427 11 9.212 11.004 12c1.888-.006 3.776-.024 5.663-.043 1.779-.017 3.557-.034 5.334-.04.002-3.305 0-6.61-.002-9.917ZM9.997 4c-2.67.345-5.338.71-7.996 1.134V12c1.445.004 2.89-.006 4.334-.016 1.222-.008 2.444-.016 3.666-.016 0-2.655-.002-5.31-.005-7.967Zm-7.995 9.001a401.36 401.36 0 0 1 4.178.015c1.273.009 2.545.018 3.817.015 0 .886 0 1.771.002 2.656C10 17.459 10 19.23 9.997 21c-2.032-.31-4.067-.591-6.102-.872h-.001L2 19.866 2.002 13ZM21.996 13H11l.016 8.383c3.662.517 7.326 1.047 10.98 1.617.005-3.334.005-6.668 0-10Z" fill="#A6C3DD"/><path d="M74.286 12.75c.034 3.632 3.18 4.841 3.214 4.857-.027.085-.503 1.722-1.657 3.413-.999 1.462-2.034 2.919-3.666 2.949-1.604.03-2.12-.953-3.953-.953-1.833 0-2.406.923-3.923.982-1.576.06-2.775-1.58-3.782-3.037-2.056-2.98-3.628-8.42-1.518-12.092 1.049-1.824 2.922-2.979 4.956-3.008 1.547-.03 3.007 1.043 3.952 1.043.945 0 2.72-1.29 4.585-1.1.78.032 2.972.315 4.38 2.38-.114.07-2.615 1.53-2.588 4.566Zm-3.014-8.918c.836-1.015 1.4-2.427 1.246-3.832-1.206.049-2.663.805-3.528 1.819-.775.898-1.454 2.335-1.27 3.712 1.343.105 2.716-.684 3.552-1.699M130.162 8h-12.324c-.463 0-.838.355-.838.794v10.412c0 .439.375.794.838.794h12.324c.463 0 .838-.355.838-.794V8.794c0-.439-.375-.794-.838-.794ZM134 15.614c0 .368-.105.72-.293.98-.187.26-.442.406-.707.406-.265 0-.52-.146-.707-.406a1.69 1.69 0 0 1-.293-.98V9.386c0-.368.105-.72.293-.98.187-.26.442-.406.707-.406.265 0 .52.146.707.406.188.26.293.612.293.98v6.228ZM116 15.614c0 .368-.105.72-.293.98-.187.26-.442.406-.707.406-.265 0-.52-.146-.707-.406a1.69 1.69 0 0 1-.293-.98V9.386c0-.368.105-.72.293-.98.187-.26.442-.406.707-.406.265 0 .52.146.707.406.188.26.293.612.293.98v6.228Z" fill="#A6C3DD"/><path fill-rule="evenodd" clip-rule="evenodd" d="M117 7s.156-6.021 7.001-6c6.78.021 6.999 6 6.999 6h-14Zm4-2a1 1 0 1 0 0-2 1 1 0 0 0 0 2Zm7-1a1 1 0 1 1-2 0 1 1 0 0 1 2 0Z" fill="#A6C3DD"/><path d="M128 22.614c0 .368-.105.72-.293.98-.187.26-.442.406-.707.406-.265 0-.52-.146-.707-.406a1.69 1.69 0 0 1-.293-.98v-6.228c0-.368.105-.72.293-.98.187-.26.442-.406.707-.406.131 0 .261.035.383.105.121.07.232.172.325.3.092.13.166.282.216.45.05.168.076.349.076.53v6.23ZM122 22.614c0 .367-.105.72-.293.98-.187.26-.442.406-.707.406-.265 0-.52-.146-.707-.406a1.692 1.692 0 0 1-.293-.98v-6.232c0-.366.106-.717.292-.977.187-.259.441-.404.705-.405.265 0 .52.146.707.406.188.26.293.613.293.98l.003 6.228Z" fill="#A6C3DD"/></svg>