<svg width="24" height="24" fill="none" xmlns="http://www.w3.org/2000/svg"><path fill-rule="evenodd" clip-rule="evenodd" d="M5.5 5a.5.5 0 0 1-.5-.5V4H3a2 2 0 0 0-2 2v1h22V6a2 2 0 0 0-2-2h-2v.5a.5.5 0 0 1-1 0V4H6v.5a.5.5 0 0 1-.5.5zM18 3H6V1.5a.5.5 0 0 0-1 0V3H3a3 3 0 0 0-3 3v14a3 3 0 0 0 3 3h18a3 3 0 0 0 3-3V6a3 3 0 0 0-3-3h-2V1.5a.5.5 0 0 0-1 0V3zm3 19a2 2 0 0 0 2-2V8H1v12a2 2 0 0 0 2 2h18zM11 11h2v2h-2v-2zm-1 0a1 1 0 0 1 1-1h2a1 1 0 0 1 1 1v2a1 1 0 0 1-1 1h-2a1 1 0 0 1-1-1v-2zm3 6h-2v2h2v-2zm-2-1a1 1 0 0 0-1 1v2a1 1 0 0 0 1 1h2a1 1 0 0 0 1-1v-2a1 1 0 0 0-1-1h-2zm6-3v-2h2v2h-2zm-1-2a1 1 0 0 1 1-1h2a1 1 0 0 1 1 1v2a1 1 0 0 1-1 1h-2a1 1 0 0 1-1-1v-2zM5 11v2h2v-2H5zm0-1a1 1 0 0 0-1 1v2a1 1 0 0 0 1 1h2a1 1 0 0 0 1-1v-2a1 1 0 0 0-1-1H5zm2 7v2H5v-2h2zm-3 0a1 1 0 0 1 1-1h2a1 1 0 0 1 1 1v2a1 1 0 0 1-1 1H5a1 1 0 0 1-1-1v-2z" fill="url(#a)"/><defs><linearGradient id="a" x1="12" y1="1" x2="12" y2="23" gradientUnits="userSpaceOnUse"><stop stop-color="#45A293"/><stop offset="1" stop-color="#0099E8"/></linearGradient></defs></svg>