<svg width="24" height="24" fill="none" xmlns="http://www.w3.org/2000/svg"><path fill-rule="evenodd" clip-rule="evenodd" d="M5.75 1.75h12.5a2.5 2.5 0 012.5 2.5v11.459a.6.6 0 01-.176.424l-.141.141-5.659 5.659-.141.141a.6.6 0 01-.424.176H5.75a2.5 2.5 0 01-2.5-2.5V4.25a2.5 2.5 0 012.5-2.5zm14 5v8.5h-3.5a2.5 2.5 0 00-2.5 2.5v3.5h-8a1.5 1.5 0 01-1.5-1.5V4.25a1.5 1.5 0 011.5-1.5h12.5a1.5 1.5 0 011.5 1.5v2.5zm-.707 9.5l-4.293 4.293V17.75a1.5 1.5 0 011.5-1.5h2.793zm-8.69-8.604a.5.5 0 00-.707.708L11.293 10l-1.647 1.646a.5.5 0 00.708.708L12 10.707l1.646 1.647a.5.5 0 00.708-.708L12.707 10l1.647-1.646a.5.5 0 00-.708-.708L12 9.293l-1.646-1.647z" fill="#000"/></svg>
