<svg width="24" height="24" fill="none" xmlns="http://www.w3.org/2000/svg"><path fill-rule="evenodd" clip-rule="evenodd" d="M20 7.081V15h-1V7.216L14.856 3H8V2h7.006c.172 0 .338.07.46.194l4.343 4.419c.122.124.191.293.191.468zM5 5.465c0-.3.221-.465.4-.465h7.82L17 8.955v11.58c0 .3-.221.465-.4.465H5.4c-.179 0-.4-.165-.4-.465V5.465zm-1 0C4 4.656 4.627 4 5.4 4h8c.16 0 .312.066.424.184l4 4.186a.643.643 0 01.176.444v11.72c0 .81-.627 1.466-1.4 1.466H5.4c-.773 0-1.4-.656-1.4-1.465V5.465z" fill="#000"/></svg>