<svg width="24" height="24" fill="none" xmlns="http://www.w3.org/2000/svg"><path fill-rule="evenodd" clip-rule="evenodd" d="M14.5 6.5a2.5 2.5 0 1 1-5 0 2.5 2.5 0 0 1 5 0Zm-10 9.77V21h15v-4.73c0-1.987-1.59-3.657-3.741-4.133l-.01-.003A5.826 5.826 0 0 0 14.5 12h-5c-2.761 0-5 1.912-5 4.27Zm14 0V20h-13v-3.73c0-1.664 1.637-3.27 4-3.27h5c2.363 0 4 1.606 4 3.27Zm-3.275-8.408a3.5 3.5 0 0 0 .131-2.36 3.502 3.502 0 0 0-6.856.998 3.5 3.5 0 0 0 6.725 1.362ZM4 12.13h.231c.377-.38.803-.715 1.265-1H4c-2.21 0-4 1.459-4 3.259V18h2.5v-1H1v-2.611c0-1.066 1.142-2.26 3-2.26ZM6 4c.357 0 .7.06 1.017.168-.14.3-.254.614-.34.94A2.147 2.147 0 0 0 6 5c-1.153 0-2 .876-2 1.852 0 .975.847 1.852 2 1.852.321 0 .62-.068.881-.188.123.313.274.611.45.892-.401.19-.853.296-1.331.296-1.657 0-3-1.277-3-2.852S4.343 4 6 4Zm12 5.704c-.478 0-.93-.107-1.331-.296a5.48 5.48 0 0 0 .45-.892c.262.12.56.188.881.188 1.153 0 2-.877 2-1.852C20 5.876 19.153 5 18 5c-.24 0-.468.038-.678.108-.085-.326-.199-.64-.34-.94C17.3 4.06 17.643 4 18 4c1.657 0 3 1.277 3 2.852s-1.343 2.852-3 2.852Zm1.769 2.426a6.874 6.874 0 0 0-1.265-1H20c2.21 0 4 1.459 4 3.259V18h-2.5v-1H23v-2.611c0-1.066-1.142-2.26-3-2.26h-.231Z" fill="#C9D7E6"/></svg>