<svg width="24" height="24" fill="none" xmlns="http://www.w3.org/2000/svg"><path fill-rule="evenodd" clip-rule="evenodd" d="M15 6.5A2.5 2.5 0 0012.5 4h-7A2.5 2.5 0 003 6.5v11A2.5 2.5 0 005.5 20h7a2.5 2.5 0 002.5-2.5v-1.09a.5.5 0 111 0v1.09a3.5 3.5 0 01-3.5 3.5h-7A3.5 3.5 0 012 17.5v-11A3.5 3.5 0 015.5 3h7A3.5 3.5 0 0116 6.5v.91a.5.5 0 11-1 0V6.5zm6.292 6l-2.375 2.374a.5.5 0 10.707.707l3.23-3.227a.5.5 0 000-.708l-3.23-3.227a.5.5 0 00-.707.707l2.375 2.374H8.5a.5.5 0 000 1h12.792z" fill="#000"/></svg>