<svg xmlns="http://www.w3.org/2000/svg" width="24" height="24"><path d="M19.071 4.399l1.06 1.06-2.1 2.1c1.16 1.19 2.11 2.722 2.969 4.438l-.276.54c-1.955 3.727-4.429 6.461-8.724 6.461-1.673 0-3.07-.415-4.266-1.14L5.99 19.602l-1.061-1.06L19.07 4.397zm-2.1 4.22l-1.83 1.832a3.5 3.5 0 01-4.688 4.687L8.83 16.762c.873.462 1.83.7 2.909.734l.261.003c3.078 0 5.169-1.607 7.15-5.203l.163-.296-.161-.298c-.7-1.27-1.414-2.291-2.18-3.082zM12 4.999c1.363 0 2.542.275 3.58.77l-1.14 1.14a6.807 6.807 0 00-2.179-.407L12 6.5c-3.078 0-5.169 1.606-7.15 5.202l-.164.297.162.299c.546.99 1.1 1.827 1.68 2.523l-1.064 1.064C4.528 14.788 3.731 13.46 3 12l.276-.54C5.231 7.733 7.705 5 12 5zm1.965 6.626l-2.338 2.338a1.999 1.999 0 002.338-2.338zM12 8.498c.263 0 .52.03.767.085l-1.595 1.595c-.44.2-.793.554-.993.993l-1.595 1.594A3.5 3.5 0 0112 8.498z"/></svg>