<svg xmlns="http://www.w3.org/2000/svg" width="24" height="24" fill="none"><path d="M21.5 10.5a.5.5 0 00-.5.5v5.5c0 1.939-1.561 3.5-3.5 3.5H5a.5.5 0 00-.5.5.5.5 0 00.5.5h12.5c2.48 0 4.5-2.02 4.5-4.5V11a.5.5 0 00-.5-.5zM4 3c-1.099 0-2 .901-2 2v11c0 1.099.901 2 2 2h13c1.099 0 2-.901 2-2V8c0-1.099-.901-2-2-2h-5.174a1 1 0 01-.869-.504l-.85-1.488A2 2 0 008.371 3zm0 1h4.371c.36 0 .69.191.87.504l.849 1.488A2.001 2.001 0 0011.826 7H17c.558 0 1 .442 1 1v8c0 .558-.442 1-1 1H4c-.558 0-1-.442-1-1V5c0-.558.442-1 1-1z" fill="#000"/></svg>
