<svg xmlns="http://www.w3.org/2000/svg" width="24" height="24"><path d="M2 5.5h19.936v13H2z" color="#000" fill="#b22234"/><g color="#000" font-weight="400" font-family="sans-serif"><path d="M2.065 6.196H22M2.065 8.261H22M2.065 10.329H22M2.065 12.39H22M2.065 14.458H22M2.065 16.522H22"/><path d="M2.064 6.197v1.166H22V6.197zm0 2.065v1.165H22V8.262zm0 2.067v1.165H22V10.33zm0 2.064v1.166H22v-1.166zm0 2.065v1.165H22v-1.165zm0 2.064v1.166H22v-1.166z" fill="#fff"/></g><path fill="#3c3b6e" d="M2 5.5h11.483v6.999H2z"/><path fill="#fff" d="M12.028 8.75l.169-.458.177.458h.56l-.453.285.172.459-.454-.282-.453.282.169-.459-.45-.285zm-.563-1.779h.563l.169-.462.177.462h.56l-.453.285.172.458-.454-.284-.453.284.169-.458zM9.81 8.751l.175-.46.172.46h.563l-.457.284.175.459-.453-.282-.457.282.175-.459-.453-.285zm1.654 1.782h.563l.169-.462.177.462h.56l-.453.281.172.462-.454-.284-.453.284.169-.462zM9.25 6.97h.563l.172-.462.172.462h.563l-.457.285.175.458-.453-.284-.457.284.175-.458zM7.596 8.75l.172-.46.178.46h.563l-.46.284.178.459-.459-.282-.453.282.172-.459-.454-.285zm1.654 1.782h.563l.172-.462.172.462h.563l-.457.281.175.462-.453-.284-.457.284.175-.462zM7.03 6.97h.563l.172-.462.178.462h.563l-.46.285.178.458-.459-.284-.453.284.172-.458zM5.377 8.75l.174-.46.178.46h.56l-.456.284.175.459-.457-.282-.453.282.175-.459-.456-.285zm1.653 1.782h.563l.172-.462.178.462h.563l-.46.281.178.462-.459-.284-.453.284.172-.462zM4.818 6.97h.563l.171-.462.178.462h.56l-.456.285.175.458-.457-.284-.453.284.175-.458zM3.164 8.75l.178-.46.172.46h.563l-.457.284.17.459-.451-.282-.457.282.178-.459-.46-.285zm1.654 1.782h.563l.171-.462.178.462h.56l-.456.281.175.462-.457-.284-.453.284.175-.462zM2.604 6.97h.563l.178-.462.172.462h.563l-.457.285.17.458-.451-.284-.457.284.178-.458zm0 3.562h.563l.178-.462.172.462h.563l-.457.281.17.462-.451-.284-.457.284.178-.462z"/><path fill="none" stroke="#e1ebf5" stroke-width=".5" d="M2 5.5h19.936v13.001H2z"/></svg>