<svg width="24" height="24" fill="none" xmlns="http://www.w3.org/2000/svg"><path fill-rule="evenodd" clip-rule="evenodd" d="M1 12C1 5.925 5.925 1 12 1s11 4.925 11 11c0 2.427-.785 4.667-2.114 6.485a10.984 10.984 0 0 1-9.887 4.47 10.95 10.95 0 0 1-2-.369 11.02 11.02 0 0 1-6-4.26C1.74 16.536 1 14.356 1 12ZM12 0C5.373 0 0 5.373 0 12c0 2.569.807 4.95 2.182 6.901a12.02 12.02 0 0 0 6.545 4.647A11.95 11.95 0 0 0 12 24c3.982 0 7.51-1.94 9.693-4.924A11.945 11.945 0 0 0 24 12c0-6.627-5.373-12-12-12Zm-1.52 14.028v.592h1.822v-.416c0-.5.096-.898.288-1.195.198-.296.585-.67 1.162-1.12.675-.525 1.148-.95 1.421-1.278.279-.327.486-.67.623-1.028.136-.364.204-.777.204-1.24 0-1.044-.356-1.862-1.069-2.454C14.22 5.296 13.256 5 12.041 5A8.202 8.202 0 0 0 8 6.046l.78 1.63c.477-.235.967-.435 1.469-.602a5.16 5.16 0 0 1 1.635-.25c.65 0 1.149.139 1.496.417.347.278.52.676.52 1.194 0 .445-.108.827-.325 1.148-.21.321-.685.772-1.422 1.352-.62.482-1.053.948-1.3 1.398-.248.451-.372 1.016-.372 1.695Zm.986 2.148c-.91 0-1.366.466-1.366 1.398 0 .45.118.802.353 1.056.235.247.573.37 1.013.37.44 0 .777-.127 1.013-.38.241-.259.362-.608.362-1.046 0-.444-.118-.787-.353-1.028-.236-.247-.576-.37-1.022-.37Z" fill="#C9D7E6"/></svg>