<svg width="24" height="24" fill="none" xmlns="http://www.w3.org/2000/svg"><path fill-rule="evenodd" clip-rule="evenodd" d="M0 12C0 5.373 5.373 0 12 0s12 5.373 12 12c0 2.646-.856 5.092-2.307 7.076a11.983 11.983 0 0 1-10.784 4.875 11.95 11.95 0 0 1-2.182-.403 12.02 12.02 0 0 1-6.545-4.647A11.945 11.945 0 0 1 0 12Zm10.343 2.212v.647h1.986v-.455c0-.545.105-.98.315-1.303.216-.323.638-.73 1.267-1.222.736-.573 1.253-1.037 1.55-1.394.305-.357.531-.73.68-1.121.148-.398.223-.849.223-1.354 0-1.138-.389-2.03-1.166-2.677-.777-.646-1.828-.97-3.152-.97-1.568 0-3.038.381-4.41 1.142l.852 1.778c.52-.256 1.054-.475 1.601-.657a5.628 5.628 0 0 1 1.784-.272c.71 0 1.254.151 1.632.454.379.303.568.737.568 1.303 0 .485-.118.902-.355 1.253-.23.35-.747.841-1.55 1.474-.676.526-1.15 1.034-1.42 1.526-.27.491-.405 1.107-.405 1.848Zm1.074 2.344c-.993 0-1.49.508-1.49 1.525 0 .491.129.875.385 1.151.257.27.625.404 1.105.404s.848-.138 1.105-.414c.264-.283.395-.663.395-1.141 0-.485-.128-.859-.385-1.121-.257-.27-.628-.404-1.115-.404Z" fill="#1F1F1F"/></svg>