<svg width="24" height="24" fill="none" xmlns="http://www.w3.org/2000/svg"><path fill-rule="evenodd" clip-rule="evenodd" d="M12 3a9 9 0 00-9 9c0 1.928.605 3.712 1.636 5.175A8.966 8.966 0 0012 21a8.986 8.986 0 007.27-3.694A8.955 8.955 0 0021 12a9 9 0 00-9-9zM2 12C2 6.477 6.477 2 12 2s10 4.477 10 10a9.955 9.955 0 01-1.922 5.896 9.986 9.986 0 01-8.987 4.063 9.959 9.959 0 01-1.818-.335 10.017 10.017 0 01-5.455-3.873A9.954 9.954 0 012 12zm11.5-1.928l-1.386 4.816c-.075.268-.112.445-.112.528 0 .049.02.095.06.14.04.039.081.059.125.059.075 0 .15-.034.226-.1.198-.163.437-.458.715-.885l.225.132c-.667 1.159-1.376 1.738-2.127 1.738-.287 0-.516-.08-.689-.238a.82.82 0 01-.251-.614c0-.163.037-.37.112-.622l.921-3.158c.089-.304.133-.533.133-.688a.338.338 0 00-.126-.257.499.499 0 00-.345-.113c-.066 0-.145.003-.238.007l.086-.264 2.273-.482h.398zm-.536-.858a.964.964 0 100-1.928.964.964 0 000 1.928z" fill="#000"/></svg>