<svg width="24" height="24" viewBox="0 0 24 24" fill="none" xmlns="http://www.w3.org/2000/svg">
<path fill-rule="evenodd" clip-rule="evenodd" d="M2 12C2 6.47715 6.47715 2 12 2C17.5228 2 22 6.47715 22 12C22 14.2049 21.2864 16.2432 20.0775 17.8964C18.2585 20.3841 15.3179 22 12 22C11.6936 22 11.3903 21.9862 11.0909 21.9592C10.4665 21.903 9.8587 21.7893 9.27273 21.6236C7.03843 20.9916 5.12202 19.6026 3.81818 17.7511C2.67267 16.1244 2 14.1407 2 12ZM13.9286 8.25005C13.9286 8.78261 13.4969 9.21434 12.9643 9.21434C12.4317 9.21434 12 8.78261 12 8.25005C12 7.71749 12.4317 7.28577 12.9643 7.28577C13.4969 7.28577 13.9286 7.71749 13.9286 8.25005ZM13.5 10.0715L12.1143 14.8876C12.0392 15.1564 12.0017 15.3326 12.0017 15.4163C12.0017 15.4648 12.0216 15.511 12.0613 15.5551C12.1011 15.5947 12.143 15.6145 12.1872 15.6145C12.2623 15.6145 12.3374 15.5815 12.4125 15.5154C12.6112 15.3524 12.8498 15.0573 13.128 14.6299L13.3533 14.7621C12.6863 15.9207 11.9774 16.5001 11.2265 16.5001C10.9394 16.5001 10.7097 16.4208 10.5375 16.2622C10.3696 16.0992 10.2857 15.8943 10.2857 15.6476C10.2857 15.4846 10.3232 15.2775 10.3983 15.0264L11.3193 11.8677C11.4076 11.5637 11.4518 11.3346 11.4518 11.1804C11.4518 11.0835 11.4098 10.9976 11.3259 10.9227C11.242 10.8478 11.1271 10.8104 10.9814 10.8104C10.9151 10.8104 10.8356 10.8126 10.7429 10.817L10.829 10.5526L13.1025 10.0715H13.5Z" fill="black"/>
</svg>
