<svg xmlns="http://www.w3.org/2000/svg" width="24" height="24"><path fill-rule="evenodd" clip-rule="evenodd" d="M19 9v7a2 2 0 0 1-2 2H5a2 2 0 0 1-2-2V6a2 2 0 0 1 2-2h3.626a1 1 0 0 1 .868.504l.85 1.488.868-.496-.868.496A2 2 0 0 0 12.08 7H17a2 2 0 0 1 2 2Zm-6.92-3a1 1 0 0 1-.868-.504l-.85-1.488A2 2 0 0 0 8.627 3H5a3 3 0 0 0-3 3v10a3 3 0 0 0 3 3h12a3 3 0 0 0 3-3V9a3 3 0 0 0-3-3h-4.92ZM22 11.5a.5.5 0 0 0-1 0v5a3.5 3.5 0 0 1-3.5 3.5h-12a.5.5 0 0 0 0 1h12a4.5 4.5 0 0 0 4.5-4.5v-5Z"/><path fill-rule="evenodd" clip-rule="evenodd" d="M9.8 9.5a.5.5 0 0 0-1 0v2.3H6.5a.5.5 0 0 0 0 1h2.3v2.3a.5.5 0 0 0 1 0v-2.3h2.3a.5.5 0 0 0 0-1H9.8V9.5Z"/></svg>