<svg width="24" height="24" fill="none" xmlns="http://www.w3.org/2000/svg"><path fill-rule="evenodd" clip-rule="evenodd" d="M15 7a1 1 0 110-2 1 1 0 010 2zm1.937-1.5a2 2 0 00-3.874 0H3.5a.5.5 0 000 1h9.563a2 2 0 003.874 0H20.5a.5.5 0 000-1h-3.563zM21 12a.5.5 0 00-.5-.5h-9.563a2 2 0 00-3.874 0H3.5a.5.5 0 000 1h3.563a2 2 0 003.874 0H20.5a.5.5 0 00.5-.5zM9 13a1 1 0 110-2 1 1 0 010 2zm-5.5 4.5a.5.5 0 000 1h9.563a2 2 0 003.874 0H20.5a.5.5 0 000-1h-3.563a2 2 0 00-3.874 0H3.5zM16 18a1 1 0 10-2 0 1 1 0 002 0z" fill="#45A293"/></svg>