<svg width="24" height="24" fill="none" xmlns="http://www.w3.org/2000/svg"><mask id="a" fill="#fff"><path fill-rule="evenodd" clip-rule="evenodd" d="m17.678 3.207 3.197 3.198a1 1 0 0 1 0 1.414l-2.674 2.674-4.612-4.611 2.675-2.675a1 1 0 0 1 1.414 0ZM12.882 6.59 2.306 17.165v4.611h4.611l10.576-10.575-4.611-4.612Z"/></mask><path fill-rule="evenodd" clip-rule="evenodd" d="m17.678 3.207 3.197 3.198a1 1 0 0 1 0 1.414l-2.674 2.674-4.612-4.611 2.675-2.675a1 1 0 0 1 1.414 0ZM12.882 6.59 2.306 17.165v4.611h4.611l10.576-10.575-4.611-4.612Z" fill="#fff"/><path d="m17.678 3.207.707-.707-.707.707Zm3.197 3.198.707-.708-.707.708Zm0 1.414.707.707-.707-.707Zm-2.674 2.674-.708.707.708.708.707-.707-.707-.708Zm-4.612-4.611-.707-.707-.707.707.707.707.707-.707Zm2.675-2.675.707.707-.707-.707ZM12.882 6.59l.707-.707-.707-.707-.707.707.707.707ZM2.306 17.165l-.707-.707-.293.293v.414h1Zm0 4.611h-1v1h1v-1Zm4.611 0v1h.415l.293-.292-.708-.708Zm10.576-10.575.708.707.707-.707-.707-.708-.708.707Zm-.522-7.287 3.197 3.198 1.414-1.415L18.385 2.5 16.97 3.914Zm3.197 3.198 1.414 1.414a2 2 0 0 0 0-2.829l-1.414 1.415Zm0 0-2.675 2.674 1.415 1.415 2.674-2.675-1.414-1.414Zm-1.26 2.674-4.612-4.611-1.414 1.414 4.611 4.611 1.415-1.414ZM14.296 6.59l2.675-2.675L15.556 2.5l-2.674 2.675 1.414 1.414Zm2.675-2.675L18.385 2.5a2 2 0 0 0-2.829 0l1.415 1.414Zm-4.796 1.968L1.599 16.458l1.414 1.414L13.589 7.296l-1.414-1.414ZM1.305 17.165v4.611h2v-4.611h-2Zm1 5.611h4.612v-2H2.306v2Zm5.32-.292L18.2 11.908l-1.415-1.415L6.21 21.07l1.415 1.415ZM18.2 10.494l-4.612-4.612-1.414 1.414 4.611 4.612 1.415-1.415Z" fill="#000" mask="url(#a)"/></svg>