<svg width="24" height="24" fill="none" xmlns="http://www.w3.org/2000/svg">
  <path fill-rule="evenodd" clip-rule="evenodd"
        d="M21.528 6.452a10.935 10.935 0 011.488 5.035l.001.027h-3.11l-.001-.027a17.061 17.061 0 00-.79-4.766l-.002-.005-.01-.03a3.54 3.54 0 00-.01-.032l.025-.011.03-.013.011-.005a11.994 11.994 0 001.807-1.001l.017-.012.016.023a11.185 11.185 0 01.528.817zm.284-1.365A11.947 11.947 0 0124 12c0 .172-.004.343-.01.514l-.001.015a11.96 11.96 0 01-2.178 6.384l-.03.043c-.19.267-.39.525-.603.776l-.05.06c-.205.239-.419.47-.643.694a11.955 11.955 0 01-7.888 3.5l-.083.004a12.363 12.363 0 01-1.358-.018 11.888 11.888 0 01-3.827-.915 11.963 11.963 0 01-4.496-3.311 11.935 11.935 0 01-1.89-3.074A11.9 11.9 0 010 12c0-.171.004-.342.01-.513l.001-.016a11.95 11.95 0 013.504-7.956A11.955 11.955 0 0112.514.01a12.01 12.01 0 014.158.932 11.964 11.964 0 014.507 3.325c.212.251.413.51.602.776l.031.043zm-2.122-.982a11.124 11.124 0 00-1.222-1.03 11.048 11.048 0 00-2.176-1.232l-.041-.017-.067-.028.047.045a9.658 9.658 0 011.579 1.99c.194.317.376.65.546.996a13.598 13.598 0 01.406.913l.025-.011a11.725 11.725 0 00.871-.44c.247-.138.483-.283.709-.434l.017-.012-.018-.022a11.14 11.14 0 00-.675-.718zm-2.24 1.088c-.187-.376-.39-.734-.607-1.07a8.642 8.642 0 00-1.326-1.616 6.836 6.836 0 00-.46-.396 5.51 5.51 0 00-1.57-.88 4.544 4.544 0 00-1-.23v6.072h.027c.326-.008.65-.025.973-.05a17.273 17.273 0 003.52-.634c.001 0 0 0 0 0 .283-.083.56-.174.828-.271l.023-.009h.003l-.001-.004a12.585 12.585 0 00-.41-.912zm-4.936 2.854a18.4 18.4 0 004.77-.729 15.772 15.772 0 00.906-.299l.01.03c.098.306.186.618.264.935.202.813.34 1.658.414 2.53.027.32.045.645.054.973l.001.027h-6.446V8.048h.027zm-1 0h-.025-.002a18.373 18.373 0 01-4.756-.733c-.3-.09-.6-.188-.891-.294l-.026-.01-.01.03c-.098.306-.186.618-.265.934a16.135 16.135 0 00-.416 2.54c-.027.321-.046.646-.055.973V11.514h6.446V8.048zm-6.447 4.44l.001.027c.01.327.028.652.055.973.074.875.213 1.723.416 2.54.079.316.167.627.265.933l.01.03.026-.009a15.379 15.379 0 01.923-.304c1.483-.437 3.071-.68 4.724-.722h.002l.025-.001v-3.467H5.067zm7.42 3.466l.024.001h.003a18.63 18.63 0 014.726.715c.315.092.624.193.925.302l.026.01.008-.028c.098-.307.187-.62.266-.937.201-.813.34-1.658.413-2.529.027-.321.045-.646.055-.973v-.017-.01h-6.446v3.466zm7.42-3.44a17.07 17.07 0 01-.79 4.765c-.002.003-.003.005-.003.008l-.01.031-.01.027.026.012.03.013.01.005c.64.288 1.234.616 1.768.976l.038.026.018.012.016-.022a11.182 11.182 0 00.528-.817 10.927 10.927 0 001.49-5.062h-3.111V12.514zm-3 5.071a17.285 17.285 0 00-3.42-.606 18.85 18.85 0 00-1-.051V23l.027-.003a4.45 4.45 0 00.973-.228 5.509 5.509 0 001.57-.88c.156-.122.31-.254.46-.396a8.64 8.64 0 001.326-1.616c.217-.336.42-.694.607-1.07.143-.285.276-.582.4-.888l.01-.023v-.003h-.001l-.024-.01c-.301-.109-.611-.209-.928-.3zm-.656 4.591c-.023.01-.045.02-.067.028l.048-.046a9.662 9.662 0 001.578-1.99c.193-.316.375-.648.545-.994.14-.286.273-.582.396-.887l.01-.026.026.011a11.681 11.681 0 01.87.44 10.222 10.222 0 01.727.446 11.106 11.106 0 01-.59.638c0-.001 0 0 0 0l-.104.101a11.118 11.118 0 01-1.222 1.03c-.676.492-1.407.906-2.177 1.232a6.974 6.974 0 01-.04.017zm-4.737-5.248l-.027.001c-.326.009-.651.026-.973.052a17.25 17.25 0 00-3.507.636c-.285.084-.565.177-.838.276l-.022.008-.004.001.002.005.01.025c.124.304.257.6.4.885.186.373.387.728.603 1.062a8.64 8.64 0 001.326 1.616c.15.14.303.272.458.395.5.393 1.027.69 1.572.881a4.542 4.542 0 00.973.228l.027.003v-6.074zM6.19 20.168a12.323 12.323 0 01-.54-.986c-.141-.285-.273-.58-.396-.883l-.012-.03-.025.012a11.69 11.69 0 00-.87.441 10.176 10.176 0 00-.721.446l.018.021a11.064 11.064 0 001.888 1.738c.676.49 1.406.905 2.176 1.231l.042.018.066.027a9.664 9.664 0 01-1.626-2.035zM3.043 18.39a11.946 11.946 0 011.842-1.02l.025-.012a8.467 8.467 0 01-.01-.03l-.01-.032-.002-.006a17.08 17.08 0 01-.794-4.802H.984v.027a10.934 10.934 0 00.857 3.777h.001A10.98 10.98 0 003.01 18.38l.016.022.017-.012zm1.051-6.875v-.027c.047-1.679.314-3.284.794-4.775l.002-.007a18.726 18.726 0 01.02-.061 19.91 19.91 0 01-.067-.03 11.963 11.963 0 01-1.8-1.003L3.026 5.6a11.49 11.49 0 00-.545.838c-.241.411-.454.836-.64 1.271 0 0 .001 0 0 0a10.935 10.935 0 00-.857 3.805h3.11zM7.096 6.41c1.07.31 2.226.516 3.418.61.322.026.646.043.973.052h.027V1a5.034 5.034 0 00-.132.017 4.546 4.546 0 00-.868.214 5.508 5.508 0 00-1.57.88 6.854 6.854 0 00-.46.396c-.476.448-.922.99-1.326 1.616-.215.334-.417.689-.604 1.062a12.486 12.486 0 00-.409.91l-.002.005.004.001.022.008a15.09 15.09 0 00.927.302zm.674-4.568a9.661 9.661 0 00-1.579 1.99 12.34 12.34 0 00-.54.985 13.552 13.552 0 00-.408.914 10.125 10.125 0 01-1.616-.9l.018-.02a11.134 11.134 0 011.888-1.737 11.04 11.04 0 012.176-1.232 13.294 13.294 0 01.108-.045 7.75 7.75 0 00-.047.045z"
        fill="#1F1F1F"/>
</svg>
