<svg width="24" height="24" fill="none" xmlns="http://www.w3.org/2000/svg"><path fill-rule="evenodd" clip-rule="evenodd" d="M11.284 9.492a3.246 3.246 0 1 0 0-6.492 3.246 3.246 0 0 0 0 6.492Zm0 1a4.246 4.246 0 1 0 0-8.492 4.246 4.246 0 0 0 0 8.492Zm-5.899 4.48C4.473 16.05 4 17.354 4 18.275v2.33h3.746a.5.5 0 0 1 0 1H3v-3.33c0-1.201.588-2.727 1.622-3.95 1.044-1.233 2.59-2.21 4.539-2.21H13.407a.5.5 0 0 1 0 1H9.16c-1.588 0-2.874.79-3.776 1.857Zm12.074-2.479.354-.354.94-.94a1 1 0 0 1 1.415 0l1.588 1.588a1 1 0 0 1 0 1.414l-.941.94-.342.343-.012.011-.353.354-6.151 6.15-2.003.001h-1v-3.002l6.152-6.152.353-.353Zm3.59 1-.941.941-1.588-1.587.94-.941 1.589 1.588Zm-3.236.06 1.588 1.589L13.542 21h-1.588v-1.588l5.859-5.858Z" fill="#C9D7E6"/></svg>