<svg xmlns="http://www.w3.org/2000/svg" width="24" height="24"><path fill-rule="evenodd" clip-rule="evenodd" d="M17 8c.552 0 1.052.224 1.414.586l.707-.707A2.99 2.99 0 0 0 17 7h-4.92a1 1 0 0 1-.868-.504l-.85-1.488A2 2 0 0 0 8.627 4H5a3 3 0 0 0-3 3v10a3 3 0 0 0 3 3h5v-1H5a2 2 0 0 1-2-2V7a2 2 0 0 1 2-2h3.626a1 1 0 0 1 .868.504l.85 1.488.868-.496-.868.496A2 2 0 0 0 12.08 8H17Zm1.46 2.493.353-.354.187-.186.754-.754a1 1 0 0 1 1.414 0l1.588 1.588a1 1 0 0 1 0 1.414l-.941.94-.342.343-.012.011-.353.354L20 14.956l-1 1L15.957 19l-1 1h-3.003v-3.002l6.152-6.152.353-.353Zm3.589 1-.941.941L20 11.328l-.48-.48.48-.48.46-.461 1.589 1.588ZM20 12.742l.4.4-.4.401-1 1L14.542 19h-1.588v-1.588l5.859-5.858.187.187 1 1Z"/></svg>
