<svg xmlns="http://www.w3.org/2000/svg" width="24" height="24"><path fill-rule="evenodd" clip-rule="evenodd" d="M11.838 1.795a.5.5 0 0 0-.536.078l-9.38 8.182a.5.5 0 0 0 0 .754l9.38 8.181a.5.5 0 0 0 .829-.376v-4.265c1.273.044 2.828.28 4.287 1.126 1.64.952 3.217 2.71 4.11 5.997a.5.5 0 0 0 .974-.038c.925-4.892-.127-8.626-2.149-11.145-1.892-2.358-4.605-3.61-7.222-3.753V2.25a.5.5 0 0 0-.293-.455ZM11.13 3.35v3.673a.5.5 0 0 0 .5.5c2.475 0 5.125 1.128 6.942 3.392 1.532 1.908 2.495 4.655 2.222 8.276-.989-2.288-2.379-3.712-3.875-4.58-1.878-1.09-3.864-1.27-5.29-1.27a.5.5 0 0 0-.5.5v3.673l-8.12-7.082 8.12-7.082Z"/></svg>