<svg width="24" height="24" fill="none" xmlns="http://www.w3.org/2000/svg"><g clip-path="url(#a)"><path fill-rule="evenodd" clip-rule="evenodd" d="M8 3a2 2 0 1 1-4 0 2 2 0 0 1 4 0zm1 0a3 3 0 1 1-6 0 3 3 0 0 1 6 0zm3 12.5a2 2 0 1 0 0-4 2 2 0 0 0 0 4zm0 1a3 3 0 1 0 0-6 3 3 0 0 0 0 6zm-5 4.929V23h10v-1.571C17 20.226 15.807 19 14 19h-4c-1.807 0-3 1.226-3 2.429zM18 23v-1.571C18 19.535 16.21 18 14 18h-4c-2.21 0-4 1.535-4 3.429V24h12v-1zM1 10.929V12.5h5.112a4.515 4.515 0 0 0-.112 1H0V10.929C0 9.035 1.79 7.5 4 7.5h4c1.417 0 2.662.632 3.373 1.585a4.523 4.523 0 0 0-1.486-.044C9.39 8.71 8.747 8.5 8 8.5H4c-1.807 0-3 1.226-3 2.429zM23 24h-3.5v-1H23v-1.571C23 20.226 21.807 19 20 19h-1.2a4.93 4.93 0 0 0-.842-1H20c2.21 0 4 1.535 4 3.429V24h-1zm-5-7.5a2.99 2.99 0 0 1-2.062-.82c.18-.325.321-.675.417-1.042a2 2 0 1 0 0-2.275 4.468 4.468 0 0 0-.417-1.042A3 3 0 1 1 18 16.5z" fill="url(#b)"/></g><defs><linearGradient id="b" x1="12" y1="0" x2="12" y2="24" gradientUnits="userSpaceOnUse"><stop stop-color="#45A293"/><stop offset="1" stop-color="#0099E8"/></linearGradient><clipPath id="a"><path fill="#fff" d="M0 0h24v24H0z"/></clipPath></defs></svg>