<svg width="24" height="24" fill="none" xmlns="http://www.w3.org/2000/svg"><path fill-rule="evenodd" clip-rule="evenodd" d="M14.143 2.474c-.753-1.965-3.533-1.965-4.286 0A2.295 2.295 0 016.78 3.749c-1.922-.858-3.888 1.108-3.03 3.03a2.295 2.295 0 01-1.275 3.078c-1.965.753-1.965 3.533 0 4.286a2.295 2.295 0 011.275 3.078c-.858 1.922 1.108 3.888 3.03 3.03a2.295 2.295 0 013.078 1.275c.753 1.965 3.533 1.965 4.286 0a2.295 2.295 0 013.078-1.275c1.922.858 3.888-1.108 3.03-3.03a2.295 2.295 0 011.275-3.078c1.965-.753 1.965-3.533 0-4.286a2.295 2.295 0 01-1.275-3.078c.858-1.922-1.108-3.888-3.03-3.03a2.295 2.295 0 01-3.078-1.275zM12 15.5a3.5 3.5 0 100-7 3.5 3.5 0 000 7z" fill="#000"/></svg>