<svg width="24" height="24" fill="none" xmlns="http://www.w3.org/2000/svg"><path fill-rule="evenodd" clip-rule="evenodd" d="M6.372 4.662a3.295 3.295 0 004.419-1.83c.425-1.11 1.993-1.11 2.418 0a3.295 3.295 0 004.42 1.83c1.083-.484 2.193.626 1.709 1.71a3.295 3.295 0 001.83 4.419c1.11.425 1.11 1.993 0 2.418a3.295 3.295 0 00-1.83 4.42c.484 1.083-.626 2.193-1.71 1.709a3.295 3.295 0 00-4.419 1.83c-.425 1.11-1.993 1.11-2.418 0a3.295 3.295 0 00-4.42-1.83c-1.083.484-2.193-.626-1.709-1.71a3.295 3.295 0 00-1.83-4.419c-1.11-.425-1.11-1.993 0-2.418a3.295 3.295 0 001.83-4.42c-.484-1.083.626-2.193 1.71-1.709zm3.485-2.188c.753-1.965 3.533-1.965 4.286 0a2.295 2.295 0 003.078 1.275c1.922-.858 3.888 1.108 3.03 3.03a2.295 2.295 0 001.275 3.078c1.965.753 1.965 3.533 0 4.286a2.295 2.295 0 00-1.275 3.078c.858 1.922-1.108 3.888-3.03 3.03a2.295 2.295 0 00-3.078 1.275c-.753 1.965-3.533 1.965-4.286 0a2.295 2.295 0 00-3.078-1.275c-1.922.858-3.888-1.108-3.03-3.03a2.295 2.295 0 00-1.275-3.078c-1.965-.753-1.965-3.533 0-4.286A2.295 2.295 0 003.749 6.78c-.858-1.922 1.108-3.888 3.03-3.03a2.295 2.295 0 003.078-1.275zM15 12a3 3 0 11-6 0 3 3 0 016 0zm1 0a4 4 0 11-8 0 4 4 0 018 0z" fill="#000"/></svg>