<svg width="16" height="16" fill="none" xmlns="http://www.w3.org/2000/svg">
  <path fill-rule="evenodd" clip-rule="evenodd"
        d="M8 6a2 2 0 100-4 2 2 0 000 4zm0 1a3 3 0 100-6 3 3 0 000 6zm-4.056 3.26C3.318 11.002 3 11.89 3 12.5V14h7.5a.5.5 0 010 1H2v-2.5c0-.89.432-2.001 1.18-2.885C3.94 8.718 5.07 8 6.5 8h3c.96 0 1.801.267 2.489.717a.5.5 0 01-.548.837C10.92 9.212 10.27 9 9.5 9h-3c-1.07 0-1.94.532-2.556 1.26zM14 10.5a.5.5 0 00-1 0V12h-1.5a.5.5 0 000 1H13v1.5a.5.5 0 001 0V13h1.5a.5.5 0 000-1H14v-1.5z"
        fill="#000"/>
</svg>
