<svg width="16" height="16" fill="none" xmlns="http://www.w3.org/2000/svg"><path fill-rule="evenodd" clip-rule="evenodd" d="M5.5 5a.5.5 0 000 1h5a.5.5 0 000-1h-5zm6.242 3.045l.354-.354.398-.398a1 1 0 011.414 0l.775.774a1 1 0 010 1.415l-.399.398-.353.354-.354.353-4.388 4.39H7v-2.19L11.389 8.4l.353-.354zM8 13.202l3.687-3.687.774.774-3.687 3.687H8v-.774zm5.577-4.029l-.774-.774L13.2 8l.775.775-.399.398zM5 7.5a.5.5 0 01.5-.5h3a.5.5 0 010 1h-3a.5.5 0 01-.5-.5zM5.5 9a.5.5 0 000 1h1a.5.5 0 000-1h-1z" fill="#000"/><path fill-rule="evenodd" clip-rule="evenodd" d="M6 3h4c.971 0 1.599.002 2.061.064.434.059.57.153.646.229.076.076.17.212.229.646.037.28.053.62.06 1.061h1c-.018-1.24-.11-1.943-.582-2.414C12.828 2 11.886 2 10 2H6c-1.886 0-2.828 0-3.414.586C2 3.172 2 4.114 2 6v4c0 1.886 0 2.828.586 3.414.471.472 1.174.564 2.414.582v-1a9.285 9.285 0 01-1.061-.06c-.434-.059-.57-.153-.646-.229-.076-.076-.17-.212-.229-.646C3.002 11.6 3 10.971 3 10V6c0-.971.002-1.599.064-2.061.059-.434.153-.57.229-.646.076-.076.212-.17.646-.229C4.4 3.002 5.029 3 6 3z" fill="#000"/></svg>