<svg width="16" height="16" fill="none" xmlns="http://www.w3.org/2000/svg"><path fill-rule="evenodd" clip-rule="evenodd" d="M5 3a1 1 0 011-1h1a.5.5 0 000-1H6a2 2 0 00-2 2v1h1V3zm4-2a.5.5 0 000 1h1a.5.5 0 000-1H9zm3 0a.5.5 0 000 1h1a1 1 0 011 1v1a.5.5 0 001 0V3a2 2 0 00-2-2h-1zM2 6.5a.5.5 0 01.5-.5h7a.5.5 0 01.5.5v7a.5.5 0 01-.5.5h-7a.5.5 0 01-.5-.5v-7zm-1 0A1.5 1.5 0 012.5 5h7A1.5 1.5 0 0111 6.5v7A1.5 1.5 0 019.5 15h-7A1.5 1.5 0 011 13.5v-7zm13.5-1a.5.5 0 01.5.5v1a.5.5 0 01-1 0V6a.5.5 0 01.5-.5zM15 9a.5.5 0 00-1 0v1a1 1 0 01-1 1h-1v1h1a2 2 0 002-2V9z" fill="#fff"/></svg>