<svg xmlns="http://www.w3.org/2000/svg" width="17" height="16"><path fill-rule="evenodd" clip-rule="evenodd" d="M6 13.238H3a2 2 0 0 1-2-2V5a2 2 0 0 1 2-2h1.795a1 1 0 0 1 .869.504l.446.782a2 2 0 0 0 1.737 1.009h2.921c.569 0 1.082.237 1.446.618l.689-.726a2.99 2.99 0 0 0-2.135-.892H7.847a1 1 0 0 1-.868-.504l-.447-.783A2 2 0 0 0 4.795 2H3a3 3 0 0 0-3 3v6.238a3 3 0 0 0 3 3h3v-1Zm6.716-6.398.227-.227.47-.47a1 1 0 0 1 1.414 0l.883.882a1 1 0 0 1 0 1.414l-.47.47-.354.354-.354.353-.764.765-1.005 1.005-1.847 1.847-1.006 1.005H7.614V11.942l4.622-4.622.353-.354.127-.126Zm2.287.892-.47.47-.765-.764-.118-.118.117-.117.354-.353.882.882Zm-1.235 1.12.057.057-.057.057-1 1-3.272 3.272h-.882v-.882l4.154-4.154.175-.175.825.825Z"/></svg>
