<svg width="16" height="16" fill="none" xmlns="http://www.w3.org/2000/svg"><g clip-path="url(#clip0)"><path fill-rule="evenodd" clip-rule="evenodd" d="M6.19 11.5a1.5 1.5 0 001.5 1.5h4a1.5 1.5 0 001.5-1.5v-7a1.5 1.5 0 00-1.5-1.5h-4a1.5 1.5 0 00-1.5 1.5.5.5 0 11-1 0A2.5 2.5 0 017.69 2h4a2.5 2.5 0 012.5 2.5v7a2.5 2.5 0 01-2.5 2.5h-4a2.5 2.5 0 01-2.5-2.5.5.5 0 011 0zm-3.793-4l1.146-1.146a.5.5 0 10-.707-.708l-2 2a.5.5 0 000 .708l2 2a.5.5 0 00.707-.708L2.397 8.5h7.793a.5.5 0 000-1H2.397z" fill="#000"/></g><defs><clipPath id="clip0"><path fill="#fff" transform="translate(.19)" d="M0 0h16v16H0z"/></clipPath></defs></svg>
