<svg xmlns="http://www.w3.org/2000/svg" width="16" height="16"><path fill-rule="evenodd" clip-rule="evenodd" d="M14.354 2.854a.5.5 0 0 0-.708-.708l-12 12a.5.5 0 0 0 .708.708l1.82-1.821A7.86 7.86 0 0 0 8 14c4.5 0 7-3.5 8-5.5-.575-1.15-1.645-2.795-3.307-3.986l1.66-1.66Zm-2.38 2.379-1.529 1.529a3 3 0 0 1-4.184 4.184L4.918 12.29c.884.435 1.909.71 3.083.71 3.616 0 5.806-2.602 6.869-4.5-.595-1.062-1.542-2.344-2.894-3.267Zm-4.99 4.99a2 2 0 0 0 2.74-2.74l-2.74 2.74ZM8 3c.929 0 1.773.15 2.536.404l-.808.807A7.037 7.037 0 0 0 8 4C4.384 4 2.194 6.602 1.131 8.5c.431.77 1.048 1.656 1.87 2.438l-.706.706C1.198 10.595.448 9.397 0 8.5 1 6.5 3.5 3 8 3Zm0 2.5c.14 0 .277.01.411.028l-1.09 1.09a2.006 2.006 0 0 0-1.203 1.203l-1.09 1.09A3 3 0 0 1 8 5.5Z"/></svg>