<svg width="16" height="16" fill="none" xmlns="http://www.w3.org/2000/svg"><path fill-rule="evenodd" clip-rule="evenodd" d="M8 1a7 7 0 100 14A7 7 0 008 1zM0 8a8 8 0 1116 0A8 8 0 010 8zm9-1.286l-.924 3.211a1.75 1.75 0 00-.075.352c0 .033.013.064.04.093.026.026.054.04.084.04.05 0 .1-.022.15-.066.132-.11.291-.306.477-.59l.15.087C8.458 10.614 7.985 11 7.484 11a.652.652 0 01-.459-.159.547.547 0 01-.168-.41c0-.108.025-.246.075-.413l.614-2.106a1.78 1.78 0 00.089-.458.225.225 0 00-.084-.172.333.333 0 00-.23-.075c-.044 0-.097.001-.16.004l.058-.176 1.516-.32H9zm-.357-.571a.643.643 0 100-1.286.643.643 0 000 1.286z" fill="#000"/></svg>