<svg width="16" height="16" fill="none" xmlns="http://www.w3.org/2000/svg"><path fill-rule="evenodd" clip-rule="evenodd" d="M2.803 5A6.01 6.01 0 016.71 2.139C6.067 2.972 5.596 3.953 5.293 5h-2.49zM2.34 6h2.716a11.04 11.04 0 000 4H2.34A5.99 5.99 0 012 8c0-.701.12-1.374.341-2zm3.534 2c0 .678.067 1.352.2 2h3.85c.133-.648.2-1.322.2-2 0-.678-.067-1.352-.2-2h-3.85a9.997 9.997 0 00-.2 2zm5.068-2a11.035 11.035 0 010 4h2.716c.22-.625.341-1.298.341-2a5.99 5.99 0 00-.341-2h-2.716zm-1.282 5H6.34c.355 1.089.912 2.065 1.661 2.818.749-.753 1.306-1.73 1.661-2.818zm-.372 2.861c.644-.833 1.115-1.814 1.418-2.861h2.49a6.002 6.002 0 01-3.908 2.861zM10.707 5c-.303-1.047-.774-2.028-1.417-2.861A6.009 6.009 0 0113.197 5h-2.49zM8 2.182c.749.753 1.306 1.73 1.661 2.818H6.34C6.694 3.911 7.25 2.935 8 2.182zM2.802 11h2.49c.304 1.047.775 2.028 1.419 2.861a5.972 5.972 0 01-3.62-2.411 6.006 6.006 0 01-.289-.45zM1 8a7 7 0 1114 0A7 7 0 011 8z" fill="#000"/></svg>