<svg xmlns="http://www.w3.org/2000/svg" width="16" height="16"><path fill="#000" d="M8.02 10.104c.267 1 .008 2.112-.777 2.897L5.12 15.123A3 3 0 01.878 10.88L3 8.759a2.997 2.997 0 012.899-.777l-3.96 3.959a1.501 1.501 0 002.015 2.218l.107-.097 3.959-3.958zm2.808-4.932a.749.749 0 010 1.06l-4.596 4.596a.749.749 0 11-1.06-1.06l4.596-4.596a.749.749 0 011.06 0zM15.123.879a3 3 0 010 4.242L13 7.243a2.998 2.998 0 01-2.897.777l3.958-3.96a1.5 1.5 0 00-2.014-2.218l-.107.097L7.98 5.9A3.006 3.006 0 018.76 3L10.88.879a3 3 0 014.243 0z"/></svg>
