<svg xmlns="http://www.w3.org/2000/svg" width="16" height="16"><path fill-rule="evenodd" clip-rule="evenodd" d="M13 14.222H3a2 2 0 0 1-2-2V4a2 2 0 0 1 2-2h2.76a1 1 0 0 1 .869.504l.66 1.154a2 2 0 0 0 1.736 1.009H13a2 2 0 0 1 2 2v5.555a2 2 0 0 1-2 2Zm0 1H3a3 3 0 0 1-3-3V4a3 3 0 0 1 3-3h2.76a2 2 0 0 1 1.737 1.008l.66 1.155a1 1 0 0 0 .868.504H13a3 3 0 0 1 3 3v5.555a3 3 0 0 1-3 3ZM9.178 6.825a.5.5 0 0 0-.708 0 .5.5 0 0 0-.006.706L9.91 8.993H3.604a.505.505 0 0 0-.504.5c-.002.276.22.5.496.5h6.306L8.43 11.455a.5.5 0 0 0-.005.707.5.5 0 0 0 .707 0l2.331-2.316a.5.5 0 0 0 .006-.706L9.178 6.825Z"/></svg>
