<svg width="16" height="16" fill="none" xmlns="http://www.w3.org/2000/svg">
  <path fill-rule="evenodd" clip-rule="evenodd"
        d="M8.875 4.625a2.625 2.625 0 11-5.25 0 2.625 2.625 0 015.25 0zm-.875 0a1.75 1.75 0 11-3.5 0 1.75 1.75 0 013.5 0z"
        fill="#6B8299"/>
  <path
    d="M12.375 14.25v-.875h1.75v-1.75a2.625 2.625 0 00-2.493-2.622 4.378 4.378 0 00-.838-.878h.706a3.5 3.5 0 013.5 3.5v2.625h-2.625zM9.313 6.32c-.15.27-.335.519-.548.739a2.625 2.625 0 100-4.868c.213.22.398.469.548.739A1.753 1.753 0 0111.5 4.625 1.75 1.75 0 019.313 6.32z"
    fill="#6B8299"/>
  <path fill-rule="evenodd" clip-rule="evenodd"
        d="M11.5 11.625v2.625H1v-2.625a3.5 3.5 0 013.5-3.5H8a3.5 3.5 0 013.5 3.5zm-9.625 1.75v-1.75A2.625 2.625 0 014.5 9H8a2.625 2.625 0 012.625 2.625v1.75h-8.75z"
        fill="#6B8299"/>
</svg>
