<svg width="16" height="16" viewBox="0 0 16 16" fill="none" xmlns="http://www.w3.org/2000/svg">
<path fill-rule="evenodd" clip-rule="evenodd" d="M3.79473 2.91082C5.19261 3.53447 6.82753 2.85726 7.37498 1.42783C7.59452 0.854624 8.40546 0.854624 8.62499 1.42783C9.17245 2.85726 10.8074 3.53447 12.2052 2.91082C12.7658 2.66073 13.3392 3.23415 13.0891 3.7947C12.4655 5.19258 13.1427 6.82749 14.5721 7.37495C15.1453 7.59449 15.1453 8.40543 14.5721 8.62496C13.1427 9.17242 12.4655 10.8073 13.0891 12.2052C13.3392 12.7658 12.7658 13.3392 12.2052 13.0891C10.8074 12.4654 9.17245 13.1427 8.62499 14.5721C8.40546 15.1453 7.59452 15.1453 7.37498 14.5721C6.82753 13.1427 5.19261 12.4654 3.79473 13.0891C3.23419 13.3392 2.66076 12.7658 2.91085 12.2052C3.5345 10.8073 2.85729 9.17242 1.42786 8.62496C0.854655 8.40543 0.854655 7.59449 1.42786 7.37495C2.85729 6.82749 3.5345 5.19258 2.91085 3.7947C2.66076 3.23415 3.23418 2.66073 3.79473 2.91082ZM6.44113 1.07017C6.98868 -0.35949 9.01129 -0.35949 9.55884 1.07017C9.9012 1.96409 10.9236 2.38759 11.7978 1.99758C13.1959 1.37383 14.6261 2.80404 14.0024 4.20213C13.6124 5.07632 14.0359 6.09874 14.9298 6.4411C16.3594 6.98865 16.3594 9.01126 14.9298 9.55881C14.0359 9.90117 13.6124 10.9236 14.0024 11.7978C14.6261 13.1959 13.1959 14.6261 11.7978 14.0023C10.9236 13.6123 9.9012 14.0358 9.55884 14.9297C9.01129 16.3594 6.98868 16.3594 6.44113 14.9297C6.09877 14.0358 5.07635 13.6123 4.20216 14.0023C2.80407 14.6261 1.37386 13.1959 1.99761 11.7978C2.38762 10.9236 1.96412 9.90117 1.0702 9.55881C-0.35946 9.01126 -0.359459 6.98865 1.0702 6.4411C1.96412 6.09874 2.38762 5.07632 1.99761 4.20213C1.37386 2.80404 2.80407 1.37383 4.20216 1.99758C5.07635 2.38759 6.09877 1.96409 6.44113 1.07017ZM9.99999 7.99996C9.99999 9.10453 9.10456 9.99996 7.99999 9.99996C6.89542 9.99996 5.99999 9.10453 5.99999 7.99996C5.99999 6.89539 6.89542 5.99996 7.99999 5.99996C9.10456 5.99996 9.99999 6.89539 9.99999 7.99996ZM11 7.99996C11 9.65681 9.65684 11 7.99999 11C6.34313 11 4.99999 9.65681 4.99999 7.99996C4.99999 6.3431 6.34313 4.99996 7.99999 4.99996C9.65684 4.99996 11 6.3431 11 7.99996Z" fill="black"/>
</svg>
