<svg width="16" height="16" viewBox="0 0 16 16" fill="none" xmlns="http://www.w3.org/2000/svg">
<path fill-rule="evenodd" clip-rule="evenodd" d="M9.55886 1.07017C9.01131 -0.35949 6.98869 -0.35949 6.44115 1.07017C6.09878 1.96409 5.07636 2.38759 4.20218 1.99758C2.80408 1.37383 1.37388 2.80404 1.99763 4.20213C2.38764 5.07632 1.96413 6.09874 1.07022 6.4411C-0.359444 6.98865 -0.359444 9.01126 1.07021 9.55881C1.96413 9.90117 2.38764 10.9236 1.99763 11.7978C1.37388 13.1959 2.80408 14.6261 4.20218 14.0023C5.07636 13.6123 6.09878 14.0358 6.44115 14.9297C6.98869 16.3594 9.01131 16.3594 9.55886 14.9297C9.90122 14.0358 10.9236 13.6123 11.7978 14.0023C13.1959 14.6261 14.6261 13.1959 14.0024 11.7978C13.6124 10.9236 14.0359 9.90117 14.9298 9.55881C16.3594 9.01126 16.3594 6.98865 14.9298 6.4411C14.0359 6.09874 13.6124 5.07632 14.0024 4.20213C14.6261 2.80404 13.1959 1.37383 11.7978 1.99758C10.9236 2.38759 9.90122 1.96409 9.55886 1.07017ZM8 10.5C9.38071 10.5 10.5 9.38067 10.5 7.99996C10.5 6.61924 9.38071 5.49996 8 5.49996C6.61929 5.49996 5.5 6.61924 5.5 7.99996C5.5 9.38067 6.61929 10.5 8 10.5Z" fill="black"/>
</svg>
