<svg width="16" height="16" xmlns="http://www.w3.org/2000/svg"><path fill-rule="evenodd" clip-rule="evenodd" d="M2.781 2.948c-.247.194-.281.328-.281.385 0 .058.034.192.281.386.241.19.62.383 1.134.554 1.023.341 2.467.56 4.085.56 1.618 0 3.062-.219 4.085-.56.513-.171.893-.364 1.134-.554.247-.194.281-.328.281-.386 0-.057-.034-.191-.281-.385-.241-.19-.62-.383-1.134-.554-1.023-.341-2.467-.56-4.085-.56-1.618 0-3.062.219-4.085.56-.513.17-.893.364-1.134.554Zm11.719.385c0-.495-.301-.887-.662-1.17-.366-.29-.865-.528-1.437-.718C11.25 1.062 9.696.833 8 .833c-1.696 0-3.252.229-4.4.612-.573.19-1.072.429-1.438.717-.36.284-.662.676-.662 1.171v9.334c0 .494.298.886.658 1.171.365.29.863.527 1.434.718 1.147.383 2.703.61 4.408.61 1.705 0 3.261-.227 4.408-.61.571-.19 1.069-.429 1.434-.718.36-.285.658-.677.658-1.171V3.333Zm-1 1.402c-.314.188-.688.35-1.1.487-1.149.383-2.704.611-4.4.611-1.696 0-3.252-.228-4.4-.611a5.633 5.633 0 0 1-1.1-.487V8c0 .06.035.194.28.388.239.19.616.382 1.128.553C4.928 9.28 6.372 9.5 8 9.5c1.628 0 3.072-.219 4.092-.56.512-.17.89-.363 1.129-.552.244-.194.279-.328.279-.388V4.735Zm0 4.67a5.595 5.595 0 0 1-1.092.484c-1.147.383-2.703.611-4.408.611-1.705 0-3.261-.228-4.408-.61A5.594 5.594 0 0 1 2.5 9.404v3.262c0 .06.035.194.28.387.239.19.616.382 1.128.553 1.02.34 2.464.56 4.092.56 1.628 0 3.072-.22 4.092-.56.512-.17.89-.363 1.129-.553.244-.193.279-.328.279-.387V9.406Z"/></svg>